Coordinates
nRows=14
nColumns=24

# SIMM Motion File Header:
name Coordinates
datacolumns 24
datarows 14
otherdata 1
range 1.40033000000000010000 1.41333000000000000000
endheader
time	pelvis_tx	pelvis_ty	pelvis_tz	pelvis_tilt	pelvis_list	pelvis_rotation	hip_flexion_r	hip_adduction_r	hip_rotation_r	knee_angle_r	ankle_angle_r	subtalar_angle_r	mtp_angle_r	hip_flexion_l	hip_adduction_l	hip_rotation_l	knee_angle_l	ankle_angle_l	subtalar_angle_l	mtp_angle_l	lumbar_extension	lumbar_bending	lumbar_rotation
      1.40033000000000010000	     -0.24228254239849956000	      0.79714403438876968000	      0.25120330319639705000	     -3.60996126686321170000	      1.52336246268016580000	     -6.46369315109432920000	     -0.95747176013598123000	      5.57213741840550370000	     -3.21470703218442870000	     -2.05040781111411170000	      6.59976844684486960000	     -0.00000000000008553765	      0.00000000000064531647	     24.70440546731869700000	     -4.23797385001496880000	     -1.34522529054081800000	    -22.23092946717735400000	      0.26400589661910084000	      0.00000000000016921338	      0.00000000000027823130	      4.03843714113552910000	     -2.63542590148994990000	      4.95777616892856090000
      1.40133000000000000000	     -0.24168243451811508000	      0.79705147732047177000	      0.25116283044829413000	     -3.61474835371668710000	      1.51727375820518780000	     -6.46011795358725660000	     -1.00744590955210000000	      5.57202797771278040000	     -3.21735505336698770000	     -2.04869581662389780000	      6.65105895353112330000	     -0.00000000000008618697	      0.00000000000064687039	     24.70585882748818200000	     -4.23902279727664940000	     -1.37461784328393200000	    -21.93463628132515500000	      0.20800140053473445000	      0.00000000000016925674	      0.00000000000027933996	      4.05380099314608790000	     -2.62308739230944440000	      4.99322455766535270000
      1.40233000000000010000	     -0.24108103828775354000	      0.79695811085245993000	      0.25112270288705391000	     -3.61956207831299050000	      1.51076557749839190000	     -6.45677080278373690000	     -1.05741402928350060000	      5.57229189484973730000	     -3.22089956398075340000	     -2.04710095713121730000	      6.70010702438943450000	     -0.00000000000008686257	      0.00000000000064843503	     24.70646825732513500000	     -4.24052388057018350000	     -1.40590726018800960000	    -21.63788464588152400000	      0.14914910871816908000	      0.00000000000016930298	      0.00000000000028041989	      4.06927626809706220000	     -2.61041438602092990000	      5.02892115900843260000
      1.40333000000000000000	     -0.24047964205739214000	      0.79686474438444821000	      0.25108257532581368000	     -3.62437580290929300000	      1.50425739679159730000	     -6.45342365198021910000	     -1.10738214901489010000	      5.57255581198669510000	     -3.22444407459451820000	     -2.04550609763853730000	      6.74915509524773500000	     -0.00000000000008753816	      0.00000000000064999967	     24.70707768716208700000	     -4.24202496386371750000	     -1.43719667709208030000	    -21.34113301043796100000	      0.09029681690161675500	      0.00000000000016934921	      0.00000000000028149981	      4.08475154304803300000	     -2.59774137973241850000	      5.06461776035150550000
      1.40433000000000010000	     -0.23987654339291892000	      0.79677033363687166000	      0.25104296353780592000	     -3.62921695446757250000	      1.49727183289790780000	     -6.45038561233267500000	     -1.15732028486375760000	      5.57325767710073890000	     -3.22899506686776800000	     -2.04412347774429690000	      6.79611910438025470000	     -0.00000000000008818688	      0.00000000000065149809	     24.70658251443764500000	     -4.24400486593757890000	     -1.47086354720894730000	    -21.04388125624541300000	      0.02737936859567198900	      0.00000000000016939248	      0.00000000000028261135	      4.10036510101054840000	     -2.58474020804446920000	      5.10066143777575040000
      1.40533000000000000000	     -0.23927344472844583000	      0.79667592288929512000	      0.25100335174979815000	     -3.63405810602585120000	      1.49028626900421960000	     -6.44734757268513280000	     -1.20725842071261420000	      5.57395954221478270000	     -3.23354605914101740000	     -2.04274085785005700000	      6.84308311351276190000	     -0.00000000000008883560	      0.00000000000065299651	     24.70608734171320000000	     -4.24598476801144020000	     -1.50453041732580810000	    -20.74662950205293300000	     -0.03553807971026151000	      0.00000000000016943575	      0.00000000000028372289	      4.11597865897306030000	     -2.57173903635652270000	      5.13670511519998830000
      1.40633000000000010000	     -0.23866946846313195000	      0.79658096838841819000	      0.25096407046223129000	     -3.63890041449695770000	      1.48311566182434640000	     -6.44449977593088530000	     -1.25716079438042730000	      5.57483820729576700000	     -3.23846752259328290000	     -2.04155127960947120000	      6.88997018901537660000	     -0.00000000000008948083	      0.00000000000065447117	     24.70501144864993400000	     -4.24813548623257730000	     -1.53940866561548570000	    -20.44919826974444600000	     -0.10017735835490318000	      0.00000000000016947342	      0.00000000000028484354	      4.13164999600239470000	     -2.55865309252310660000	      5.17296366686629840000
      1.40733000000000000000	     -0.23806461459697759000	      0.79648547013424098000	      0.25092511967510550000	     -3.64374387988089010000	      1.47576001135829050000	     -6.44184222206993520000	     -1.30702740586717450000	      5.57589367234369160000	     -3.24375945722456430000	     -2.04055474302254150000	      6.93678033088807760000	     -0.00000000000009012257	      0.00000000000065592207	     24.70335483524784000000	     -4.25045702060099110000	     -1.57549829207797170000	    -20.15158755932008100000	     -0.16653846733823427000	      0.00000000000016950549	      0.00000000000028597328	      4.14737911209854640000	     -2.54548237654422630000	      5.20943709277466650000
      1.40833000000000010000	     -0.23745976073082309000	      0.79638997188006377000	      0.25088616888797965000	     -3.64858734526482390000	      1.46840436089223300000	     -6.43918466820898510000	     -1.35689401735393280000	      5.57694913739161710000	     -3.24905139185584700000	     -2.03955820643561130000	      6.98359047276078910000	     -0.00000000000009076431	      0.00000000000065737296	     24.70169822184574200000	     -4.25277855496940570000	     -1.61158791854046560000	    -19.85397684889564800000	     -0.23289957632158007000	      0.00000000000016953757	      0.00000000000028710303	      4.16310822819470160000	     -2.53231166056534280000	      5.24591051868304350000
      1.40933000000000000000	     -0.23685320557098491000	      0.79629330896606287000	      0.25084791250955885000	     -3.65347337971140980000	      1.46072688563349900000	     -6.43688580608052610000	     -1.40659125410868620000	      5.57835532304953040000	     -3.25486734657592790000	     -2.03909854598909800000	      7.03224436040278180000	     -0.00000000000009145804	      0.00000000000065895487	     24.69900803761815300000	     -4.25533600948568850000	     -1.64986835192279700000	    -19.55631104831138200000	     -0.30122086332123926000	      0.00000000000016958005	      0.00000000000028822648	      4.17898205064828510000	     -2.51904891091589930000	      5.28279771267197520000
      1.41033000000000010000	     -0.23624665041114656000	      0.79619664605206186000	      0.25080965613113804000	     -3.65835941415799710000	      1.45304941037476240000	     -6.43458694395206800000	     -1.45628849086345010000	      5.57976150870744460000	     -3.26068330129601190000	     -2.03863888554258570000	      7.08089824804478950000	     -0.00000000000009215176	      0.00000000000066053678	     24.69631785339056400000	     -4.25789346400197120000	     -1.68814878530514180000	    -19.25864524772705300000	     -0.36954215032091797000	      0.00000000000016962254	      0.00000000000028934992	      4.19485587310187300000	     -2.50578616126645270000	      5.31968490666091580000
      1.41133000000000000000	     -0.23563930435859010000	      0.79609937617095350000	      0.25077170166826385000	     -3.66330833107829120000	      1.44520807457664510000	     -6.43241119822180620000	     -1.50585509376123140000	      5.58137023765222030000	     -3.26672961245290280000	     -2.03845286227263370000	      7.13092086260891820000	     -0.00000000000009285212	      0.00000000000066212089	     24.69323202377036400000	     -4.26053595063430190000	     -1.72729755514637500000	    -18.96111522647875300000	     -0.43815974777410899000	      0.00000000000016967674	      0.00000000000029045718	      4.21083571662702030000	     -2.49247658366056020000	      5.35672260818496680000
      1.41233000000000010000	     -0.23503116741331523000	      0.79600149932273767000	      0.25073404912093628000	     -3.66832013047229520000	      1.43720287823914130000	     -6.43035856888974160000	     -1.55529106280205000000	      5.58318150988386200000	     -3.27300628004660690000	     -2.03854047617924560000	      7.18231220409520880000	     -0.00000000000009355913	      0.00000000000066370720	     24.68975054875755500000	     -4.26326346938268140000	     -1.76731466144652490000	    -18.66372098456635300000	     -0.50707365568084650000	      0.00000000000016974266	      0.00000000000029154824	      4.22692158122373480000	     -2.47912017809821530000	      5.39391081724414700000
      1.41333000000000000000	     -0.23442263694134752000	      0.79590332255177765000	      0.25069653863825431000	     -3.67336723421783340000	      1.42911076476422120000	     -6.42834797229472970000	     -1.60466569960862750000	      5.58510704182345120000	     -3.27940302874155120000	     -2.03874177934488230000	      7.23431092293834150000	     -0.00000000000009426124	      0.00000000000066530661	     24.68609256286344700000	     -4.26602126814802140000	     -1.80769340547322080000	    -18.36645430414419900000	     -0.57594808310180534000	      0.00000000000016980982	      0.00000000000029264866	      4.24305989623754790000	     -2.46574104152682550000	      5.43115450609060260000
